<svg width="96" height="96" viewBox="0 0 96 96" fill="none" xmlns="http://www.w3.org/2000/svg">
<rect width="96" height="78" rx="4" fill="#FF7707"/>
<path d="M75 4.5H21C19.3431 4.5 18 5.84315 18 7.5V88.5C18 90.1569 19.3431 91.5 21 91.5H75C76.6569 91.5 78 90.1569 78 88.5V7.5C78 5.84315 76.6569 4.5 75 4.5Z" fill="#FFE9D6"/>
<path d="M77.9765 49.3875L67.499 51L61.499 48L58.499 64.5H37.499L34.499 48L28.499 51L18.0215 49.3875L19.499 42H25.499L32.999 33L37.3865 31.3556L44.999 28.5H50.999L58.6115 31.3556L62.999 33L70.499 42H76.499L77.9765 49.3875Z" fill="#FDD13C"/>
<path d="M24 12C24.8284 12 25.5 11.3284 25.5 10.5C25.5 9.67157 24.8284 9 24 9C23.1716 9 22.5 9.67157 22.5 10.5C22.5 11.3284 23.1716 12 24 12Z" fill="#FF7707"/>
<path d="M28.5 12C29.3284 12 30 11.3284 30 10.5C30 9.67157 29.3284 9 28.5 9C27.6716 9 27 9.67157 27 10.5C27 11.3284 27.6716 12 28.5 12Z" fill="#FF7707"/>
<path d="M33 12C33.8284 12 34.5 11.3284 34.5 10.5C34.5 9.67157 33.8284 9 33 9C32.1716 9 31.5 9.67157 31.5 10.5C31.5 11.3284 32.1716 12 33 12Z" fill="#FF7707"/>
<path d="M58.6117 31.3556L47.9992 45L37.3867 31.3556L44.9992 28.5H50.9992L58.6117 31.3556Z" fill="#325873"/>
<path d="M27 63H69V66H27V63Z" fill="#FF7707"/>
<path d="M48 70.5H55.5V73.5H48V70.5Z" fill="#FF7707"/>
<path d="M40.5 70.5H45V73.5H40.5V70.5Z" fill="#FF7707"/>
<path d="M49.5 78H60V81H49.5V78Z" fill="#FF7707"/>
<path d="M36 78H46.5V81H36V78Z" fill="#FF7707"/>
<path d="M77.9776 49.3881L84.2616 48.4213C85.0241 48.304 85.7193 47.9177 86.2216 47.3322C86.7239 46.7467 87 46.0008 87 45.2294C87 44.8053 86.9165 44.3854 86.7542 43.9936C86.5919 43.6018 86.354 43.2458 86.0541 42.9459C85.7542 42.646 85.3982 42.4081 85.0064 42.2458C84.6146 42.0835 84.1947 42 83.7706 42H82.5V39H79.5L76.5 42L77.9776 49.3881Z" fill="#FFE9D6"/>
<path d="M18.0224 49.3881L11.7384 48.4213C10.9759 48.304 10.2807 47.9177 9.7784 47.3322C9.27612 46.7467 9 46.0008 9 45.2294C9 44.8053 9.08353 44.3854 9.24582 43.9936C9.40812 43.6018 9.64599 43.2458 9.94587 42.9459C10.2458 42.646 10.6018 42.4081 10.9936 42.2458C11.3854 42.0835 11.8053 42 12.2294 42H13.5V39H16.5L19.5 42L18.0224 49.3881Z" fill="#FFE9D6"/>
<path d="M52.5 21V25.5C52.5 26.6935 52.0259 27.8381 51.182 28.682C50.3381 29.5259 49.1935 30 48 30C46.8065 30 45.6619 29.5259 44.818 28.682C43.9741 27.8381 43.5 26.6935 43.5 25.5V21H52.5Z" fill="#FFCEB6"/>
<path d="M43.5 21V18.4542C43.5 18.0006 43.5893 17.5514 43.7629 17.1323C43.9365 16.7132 44.191 16.3324 44.5117 16.0117C44.8324 15.691 45.2132 15.4365 45.6323 15.2629C46.0514 15.0893 46.5006 15 46.9542 15C47.6361 15 48.3028 15.2019 48.8702 15.5801L52.5 18V21" fill="#325873"/>
<circle cx="78" cy="21" r="10.5" fill="#325873"/>
<path fill-rule="evenodd" clip-rule="evenodd" d="M74.25 17.25H81.75C82.2678 17.25 82.6875 17.6697 82.6875 18.1875V23.8125C82.6875 24.3303 82.2678 24.75 81.75 24.75H74.25C73.7322 24.75 73.3125 24.3303 73.3125 23.8125V18.1875C73.3125 17.6697 73.7322 17.25 74.25 17.25ZM77.6109 22.5094L79.4344 21.2906C79.5326 21.2266 79.5919 21.1173 79.5919 21C79.5919 20.8827 79.5326 20.7734 79.4344 20.7094L77.6109 19.4906C77.5033 19.4179 77.3643 19.4104 77.2494 19.4712C77.1346 19.5321 77.0627 19.6513 77.0625 19.7812V22.2188C77.0627 22.3487 77.1346 22.4679 77.2494 22.5288C77.3643 22.5896 77.5033 22.5821 77.6109 22.5094Z" fill="white"/>
<circle cx="17.625" cy="76.875" r="8.25" fill="#FFB401"/>
<path fill-rule="evenodd" clip-rule="evenodd" d="M20.9347 74.2484C21.7888 74.2484 22.2312 74.521 22.3845 74.9385C22.5991 75.5275 22.1874 76.2528 20.685 77.0835C20.5969 78.3001 19.801 79.3496 18.6559 79.759C17.5109 80.1683 16.233 79.8602 15.3982 78.9735C14.2287 79.1801 13.1512 79.1449 12.8753 78.3933C12.6344 77.7956 13.0593 77.0615 14.6273 76.2176C14.8552 75.1957 15.5853 74.3602 16.5652 74.0001C17.545 73.6401 18.6401 73.8048 19.4717 74.4375C19.9514 74.323 20.4418 74.2596 20.9347 74.2484ZM14.623 77.5362C14.6002 77.4393 14.5841 77.3409 14.5748 77.2417C13.2695 78.0197 13.6111 78.3362 14.8332 78.1736C15.1368 78.1347 15.438 78.079 15.7355 78.0065C16.4601 77.8321 17.1739 77.6149 17.873 77.356C18.5826 77.0967 19.2308 76.8198 19.7739 76.556C19.5759 75.4463 18.5733 74.667 17.4531 74.7519C16.3329 74.8369 15.4584 75.7587 15.4289 76.8857C15.4343 77.0548 15.4578 77.2227 15.499 77.3868C15.21 77.4529 14.9175 77.5028 14.623 77.5362ZM17.6189 79.0834C17.2006 79.083 16.7913 78.9608 16.4407 78.7318C17.1065 78.5516 17.7328 78.3362 18.1708 78.178C18.7446 77.967 19.2483 77.7648 19.6907 77.567C19.398 78.4678 18.5631 79.0789 17.6189 79.0834ZM20.5886 76.1253C20.5023 75.7917 20.3633 75.4741 20.1769 75.1847C21.999 74.877 21.8107 75.4044 20.5886 76.1253Z" fill="white"/>
</svg>
