<svg width="96" height="96" viewBox="0 0 96 96" fill="none" xmlns="http://www.w3.org/2000/svg">
<path d="M64.8775 90.1875H50.2769C50.2769 90.1875 49.8169 89.2811 49.6815 89.1688C49.2829 88.8382 49.0157 88.3125 49.5334 88.3125H64.8775C66.4283 88.3125 67.69 87.0508 67.69 85.5C67.69 84.7478 67.3977 84.0422 66.8667 83.5125C66.3344 82.9802 65.6282 82.6875 64.8775 82.6875H61.1275C60.6098 82.6875 60.19 82.2679 60.19 81.75C60.19 81.2321 60.6098 80.8125 61.1275 80.8125H64.8775C66.129 80.8125 67.306 81.3004 68.1917 82.1859C69.0769 83.0687 69.565 84.246 69.565 85.5C69.565 88.0847 67.4622 90.1875 64.8775 90.1875Z" fill="#FF7707"/>
<path d="M84.5635 48C84.0458 48 83.626 47.5804 83.626 47.0625V15.1875C83.626 14.6696 84.0458 14.25 84.5635 14.25C85.0812 14.25 85.501 14.6696 85.501 15.1875V47.0625C85.501 47.5802 85.0812 48 84.5635 48Z" fill="#325873"/>
<path d="M25.0843 57.0408L22.1518 62.3714L17.1287 64.9964L11.8262 59.6939V59.692L14.4643 54.262L19.7818 51.7383L25.0843 57.0408Z" fill="#FFB401"/>
<path d="M19.7817 51.7387L11.8261 59.6925V59.6943L6.52172 54.39C4.32609 52.1925 4.32609 48.6318 6.52172 46.4343C8.69691 44.2592 12.2626 44.2196 14.4773 46.4343L19.7817 51.7387Z" fill="#FF7707"/>
<path d="M74.251 15.1868V22.6868L48.001 24.5618L21.751 22.6868V15.1868L47.3554 12.2773L74.251 15.1868Z" fill="#FF7707"/>
<path d="M74.251 22.6875V39.5625L48.001 45.1875L21.751 39.5625V22.6875H74.251Z" fill="#FFE9D6"/>
<path d="M87.376 3.9375V15.1875C84.3171 15.1875 10.6615 15.1875 8.62598 15.1875V3.9375H87.376Z" fill="#325873"/>
<path d="M91.126 63V78.9375H78.001V63C78.001 59.3756 80.9391 56.4375 84.5635 56.4375C88.1856 56.4375 91.126 59.3737 91.126 63Z" fill="#325873"/>
<path d="M84.5635 47.0625C87.151 47.0625 89.251 49.1606 89.251 51.75C89.251 54.3375 87.151 56.4375 84.5635 56.4375C81.9741 56.4375 79.876 54.3375 79.876 51.75C79.876 49.1606 81.9741 47.0625 84.5635 47.0625Z" fill="#FF7707"/>
<path d="M67.0735 56.115C68.4291 57.4725 70.3041 58.3125 72.376 58.3125C70.3041 58.3125 68.4291 59.1525 67.0735 60.51C65.716 61.8656 64.876 63.7406 64.876 65.8125C64.876 61.6706 61.5179 58.3125 57.376 58.3125C59.4479 58.3125 61.3229 57.4725 62.6785 56.115C64.036 54.7594 64.876 52.8844 64.876 50.8125C64.876 52.8844 65.716 54.7594 67.0735 56.115Z" fill="#FF7707"/>
<path d="M14.5735 80.49C15.9291 81.8475 17.8041 82.6875 19.876 82.6875C17.8041 82.6875 15.9291 83.5275 14.5735 84.885C13.216 86.2406 12.376 88.1156 12.376 90.1875C12.376 86.0456 9.01785 82.6875 4.87598 82.6875C6.94785 82.6875 8.82285 81.8475 10.1785 80.49C11.536 79.1344 12.376 77.2594 12.376 75.1875C12.376 77.2594 13.216 79.1344 14.5735 80.49Z" fill="#FF7707"/>
<path d="M47.6239 79.5804L50.2751 90.1873L39.6683 87.536L17.1289 64.9966L25.0845 57.041L47.6239 79.5804Z" fill="#FFE9D6"/>
<path d="M81.751 84.5625C82.786 84.5625 83.626 85.4006 83.626 86.4375C83.626 87.4725 82.786 88.3125 81.751 88.3125C80.7141 88.3125 79.876 87.4725 79.876 86.4375C79.876 85.4006 80.7141 84.5625 81.751 84.5625Z" fill="#FFE9D6"/>
<path d="M57.376 65.8125C58.411 65.8125 59.251 66.6506 59.251 67.6875C59.251 68.7225 58.411 69.5625 57.376 69.5625C56.3391 69.5625 55.501 68.7225 55.501 67.6875C55.501 66.6506 56.3391 65.8125 57.376 65.8125Z" fill="#FFE9D6"/>
<path d="M34.876 50.8125C35.911 50.8125 36.751 51.6506 36.751 52.6875C36.751 53.7225 35.911 54.5625 34.876 54.5625C33.8391 54.5625 33.001 53.7225 33.001 52.6875C33.001 51.6506 33.8391 50.8125 34.876 50.8125Z" fill="#FFE9D6"/>
<path d="M29.251 88.3125C30.286 88.3125 31.126 89.1506 31.126 90.1875C31.126 91.2225 30.286 92.0625 29.251 92.0625C28.2141 92.0625 27.376 91.2225 27.376 90.1875C27.376 89.1506 28.2141 88.3125 29.251 88.3125Z" fill="#FFE9D6"/>
<path d="M10.501 24.5625C11.536 24.5625 12.376 25.4006 12.376 26.4375C12.376 27.4725 11.536 28.3125 10.501 28.3125C9.4641 28.3125 8.62598 27.4725 8.62598 26.4375C8.62598 25.4006 9.4641 24.5625 10.501 24.5625Z" fill="#FFE9D6"/>
</svg>
