<svg width="96" height="96" viewBox="0 0 96 96" fill="none" xmlns="http://www.w3.org/2000/svg">
<path d="M51.0003 88.5002C50.8033 88.5004 50.6082 88.4618 50.4262 88.3864C50.2441 88.311 50.0788 88.2004 49.9397 88.0609L45.043 83.1643L47.1642 81.0428L51.0003 84.8789L61.9397 73.9395L64.0609 76.0609L52.0609 88.0609C51.9218 88.2004 51.7565 88.311 51.5744 88.3864C51.3924 88.4618 51.1973 88.5004 51.0003 88.5002Z" fill="#325873"/>
<path d="M34.4873 86.9951L41.9862 79.4962L44.9857 82.4957L37.4868 89.9946L34.4873 86.9951Z" fill="#325873"/>
<path d="M19.2426 33.0002C18.1069 33.0002 16.9966 32.6634 16.0522 32.0324C15.1078 31.4014 14.3718 30.5045 13.9371 29.4552C13.5025 28.4058 13.3888 27.2512 13.6104 26.1372C13.8319 25.0233 14.3789 24 15.182 23.1969L24.4394 13.9395L26.5606 16.0609L17.3033 25.3184C16.7896 25.8328 16.5012 26.5302 16.5015 27.2573C16.5018 27.9843 16.7908 28.6814 17.3049 29.1955C17.819 29.7096 18.5161 29.9985 19.2432 29.9987C19.9702 29.999 20.6675 29.7106 21.182 29.1969L30.4394 19.9394L32.5606 22.0609L23.3033 31.3183C22.7713 31.8532 22.1384 32.2773 21.4414 32.566C20.7444 32.8546 19.9971 33.0022 19.2426 33.0002Z" fill="#FF7707"/>
<path d="M91.5 14.0461C91.5001 15.2997 91.2532 16.541 90.7735 17.6991C90.2939 18.8573 89.5908 19.9096 88.7044 20.7961L85.8112 23.6892L83.6888 25.8117L80.5612 28.9392L78.4388 31.0617L75.3112 34.1892L73.1888 36.3117L70.0612 39.4392L67.9388 41.5617L64.8112 44.6892L62.6888 46.8117L59.5612 49.9392L57.4388 52.0617L54.3112 55.1892L52.1888 57.3117L49.0612 60.4392L46.9388 62.5617L43.8112 65.6892L41.6888 67.8117L38.5612 70.9392L36.4387 73.0617L33.3113 76.1892L31.1887 78.3117L27.3113 82.1892L25.1887 84.3117L18 91.5005L4.5 78.0005L75.2044 7.29608C76.5394 5.96101 78.2403 5.0518 80.092 4.68345C81.9437 4.31509 83.8631 4.50412 85.6074 5.22665C87.3517 5.94917 88.8425 7.17273 89.8914 8.74258C90.9403 10.3124 91.5001 12.1581 91.5 14.0461Z" fill="#FFE9D6"/>
<path d="M84 13.5C84.8284 13.5 85.5 12.8284 85.5 12C85.5 11.1716 84.8284 10.5 84 10.5C83.1716 10.5 82.5 11.1716 82.5 12C82.5 12.8284 83.1716 13.5 84 13.5Z" fill="#FFB401"/>
<path d="M25.9277 73.0566L28.0499 70.9344L33.2991 76.1837L31.177 78.3059L25.9277 73.0566Z" fill="#FFB401"/>
<path d="M19.9277 79.0557L22.0499 76.9335L27.2991 82.1827L25.1769 84.3049L19.9277 79.0557Z" fill="#FFB401"/>
<path d="M31.1777 67.8076L33.2999 65.6854L38.5491 70.9346L36.427 73.0568L31.1777 67.8076Z" fill="#FFB401"/>
<path d="M36.4277 62.5586L38.5499 60.4364L43.7991 65.6856L41.677 67.8078L36.4277 62.5586Z" fill="#FFB401"/>
<path d="M41.6777 57.3105L43.7999 55.1883L49.0491 60.4376L46.9269 62.5598L41.6777 57.3105Z" fill="#FFB401"/>
<path d="M46.9277 52.0615L49.0499 49.9393L54.2991 55.1885L52.1769 57.3107L46.9277 52.0615Z" fill="#FFB401"/>
<path d="M52.1777 46.8135L54.2999 44.6913L59.5491 49.9405L57.4269 52.0627L52.1777 46.8135Z" fill="#FFB401"/>
<path d="M57.4277 41.5645L59.5499 39.4423L64.7991 44.6915L62.6769 46.8137L57.4277 41.5645Z" fill="#FFB401"/>
<path d="M62.6777 36.3145L64.7999 34.1923L70.0491 39.4415L67.9269 41.5637L62.6777 36.3145Z" fill="#FFB401"/>
<path d="M67.9277 31.0664L70.0499 28.9442L75.2991 34.1934L73.1769 36.3156L67.9277 31.0664Z" fill="#FFB401"/>
<path d="M73.1787 25.8174L75.3009 23.6952L80.5501 28.9444L78.4279 31.0666L73.1787 25.8174Z" fill="#FFB401"/>
<path d="M78.4287 20.5684L80.5509 18.4462L85.8001 23.6954L83.6779 25.8176L78.4287 20.5684Z" fill="#FFB401"/>
<path d="M60 13.5L10.5 63H7.5L4.5 60V57L54 7.5L60 13.5Z" fill="#325873"/>
<path d="M63 4.5L60 13.5L54 7.5L63 4.5Z" fill="#FFCEB6"/>
<path d="M15 58.5L10.5 63H7.5L4.5 60V57L9 52.5L15 58.5Z" fill="#FF7707"/>
<path d="M8.99414 52.4961L13.4934 47.9968L19.4926 53.9959L14.9933 58.4952L8.99414 52.4961Z" fill="#FFE9D6"/>
<path d="M38.9902 79.498L82.4837 36.0046L88.4829 42.0037L44.9894 85.4972L38.9902 79.498Z" fill="#FF7707"/>
<path d="M38.9873 79.4961L44.9864 73.497L50.9855 79.4961L44.9864 85.4952L38.9873 79.4961Z" fill="#FDD13C"/>
<path d="M88.5 42L82.5 36L91.5 33L88.5 42Z" fill="#FFE9D6"/>
<path d="M91.5 72V75L75 91.5L64.5 81L81 64.5H84L91.5 72Z" fill="#FFE9D6"/>
<path d="M64.4844 80.999L74.9828 70.5006L85.4812 80.999L74.9828 91.4974L64.4844 80.999Z" fill="#325873"/>
<path d="M26.7426 25.5C25.6069 25.5 24.4966 25.1632 23.5522 24.5322C22.6078 23.9012 21.8718 23.0043 21.4371 21.955C21.0025 20.9056 20.8888 19.751 21.1104 18.637C21.3319 17.5231 21.8789 16.4998 22.682 15.6967L26.1966 12.182C27.2736 11.105 28.7342 10.5 30.2573 10.5C31.7803 10.5 33.241 11.105 34.3179 12.182C35.3949 13.2589 35.9999 14.7196 36 16.2426C36 17.7657 35.3949 19.2263 34.318 20.3033L30.8034 23.818L30.8033 23.8182C30.2712 24.353 29.6384 24.7771 28.9414 25.0658C28.2444 25.3545 27.4971 25.502 26.7426 25.5ZM30.2574 13.5C29.897 13.499 29.5401 13.5695 29.2072 13.7074C28.8743 13.8453 28.5721 14.0478 28.318 14.3033L24.8034 17.818C24.5481 18.0725 24.3455 18.3749 24.2072 18.7078C24.0688 19.0407 23.9975 19.3976 23.9972 19.7581C23.997 20.1186 24.0678 20.4757 24.2056 20.8088C24.3435 21.1419 24.5456 21.4446 24.8005 21.6995C25.0554 21.9544 25.3581 22.1565 25.6912 22.2944C26.0243 22.4322 26.3813 22.503 26.7418 22.5028C27.1023 22.5025 27.4592 22.4312 27.7922 22.2929C28.1251 22.1546 28.4275 21.952 28.682 21.6967L32.1966 18.182C32.5802 17.7985 32.8414 17.3098 32.9473 16.7777C33.0531 16.2457 32.9988 15.6943 32.7912 15.1931C32.5837 14.6919 32.2321 14.2636 31.7811 13.9622C31.3301 13.6608 30.7998 13.5 30.2574 13.5Z" fill="#FDD13C"/>
</svg>
