<svg width="96" height="96" viewBox="0 0 96 96" fill="none" xmlns="http://www.w3.org/2000/svg">
<path d="M91.5 16.5V88.5C91.5 89.2956 91.1839 90.0587 90.6213 90.6213C90.0587 91.1839 89.2956 91.5 88.5 91.5H7.5C6.70435 91.5 5.94129 91.1839 5.37868 90.6213C4.81607 90.0587 4.5 89.2956 4.5 88.5V16.5H91.5Z" fill="#FFE9D6"/>
<path d="M4.5 16.5V7.5C4.5 6.70435 4.81607 5.94129 5.37868 5.37868C5.94129 4.81607 6.70435 4.5 7.5 4.5H88.5C89.2956 4.5 90.0587 4.81607 90.6213 5.37868C91.1839 5.94129 91.5 6.70435 91.5 7.5V16.5H4.5Z" fill="#325873"/>
<path d="M10.5 12C11.3284 12 12 11.3284 12 10.5C12 9.67157 11.3284 9 10.5 9C9.67157 9 9 9.67157 9 10.5C9 11.3284 9.67157 12 10.5 12Z" fill="white"/>
<path d="M15 12C15.8284 12 16.5 11.3284 16.5 10.5C16.5 9.67157 15.8284 9 15 9C14.1716 9 13.5 9.67157 13.5 10.5C13.5 11.3284 14.1716 12 15 12Z" fill="white"/>
<path d="M19.5 12C20.3284 12 21 11.3284 21 10.5C21 9.67157 20.3284 9 19.5 9C18.6716 9 18 9.67157 18 10.5C18 11.3284 18.6716 12 19.5 12Z" fill="white"/>
<path d="M40.5 42H46.5V48H40.5V42Z" fill="white"/>
<path d="M46.5 49.5H40.5C40.303 49.5 40.108 49.4612 39.926 49.3858C39.744 49.3104 39.5786 49.2 39.4393 49.0607C39.3 48.9214 39.1895 48.756 39.1142 48.574C39.0388 48.392 39 48.197 39 48V42C39 41.803 39.0388 41.608 39.1142 41.426C39.1895 41.244 39.3 41.0786 39.4393 40.9393C39.5786 40.8 39.744 40.6895 39.926 40.6142C40.108 40.5388 40.303 40.5 40.5 40.5H46.5C46.697 40.5 46.892 40.5388 47.074 40.6142C47.256 40.6895 47.4214 40.8 47.5607 40.9393C47.7 41.0786 47.8105 41.244 47.8858 41.426C47.9612 41.608 48 41.803 48 42V48C48 48.197 47.9612 48.392 47.8858 48.574C47.8105 48.756 47.7 48.9214 47.5607 49.0607C47.4214 49.2 47.256 49.3104 47.074 49.3858C46.892 49.4612 46.697 49.5 46.5 49.5ZM42 46.5H45V43.5H42V46.5Z" fill="#FDD13C"/>
<path d="M52.5 43.5H57V46.5H52.5V43.5Z" fill="#FF7707"/>
<path d="M60 43.5H81V46.5H60V43.5Z" fill="#FF7707"/>
<path d="M40.5 54H46.5V60H40.5V54Z" fill="white"/>
<path d="M46.5 61.5H40.5C40.303 61.5 40.108 61.4612 39.926 61.3858C39.744 61.3104 39.5786 61.2 39.4393 61.0607C39.3 60.9214 39.1895 60.756 39.1142 60.574C39.0388 60.392 39 60.197 39 60V54C39 53.803 39.0388 53.608 39.1142 53.426C39.1895 53.244 39.3 53.0786 39.4393 52.9393C39.5786 52.8 39.744 52.6896 39.926 52.6142C40.108 52.5388 40.303 52.5 40.5 52.5H46.5C46.697 52.5 46.892 52.5388 47.074 52.6142C47.256 52.6896 47.4214 52.8 47.5607 52.9393C47.7 53.0786 47.8105 53.244 47.8858 53.426C47.9612 53.608 48 53.803 48 54V60C48 60.197 47.9612 60.392 47.8858 60.574C47.8105 60.756 47.7 60.9214 47.5607 61.0607C47.4214 61.2 47.256 61.3104 47.074 61.3858C46.892 61.4612 46.697 61.5 46.5 61.5ZM42 58.5H45V55.5H42V58.5Z" fill="#FDD13C"/>
<path d="M52.5 55.5H57V58.5H52.5V55.5Z" fill="#FF7707"/>
<path d="M60 55.5H81V58.5H60V55.5Z" fill="#FF7707"/>
<path d="M40.5 66H46.5V72H40.5V66Z" fill="white"/>
<path d="M46.5 73.5H40.5C40.303 73.5 40.108 73.4612 39.926 73.3858C39.744 73.3104 39.5786 73.2 39.4393 73.0607C39.3 72.9214 39.1895 72.756 39.1142 72.574C39.0388 72.392 39 72.197 39 72V66C39 65.803 39.0388 65.608 39.1142 65.426C39.1895 65.244 39.3 65.0786 39.4393 64.9393C39.5786 64.8 39.744 64.6896 39.926 64.6142C40.108 64.5388 40.303 64.5 40.5 64.5H46.5C46.697 64.5 46.892 64.5388 47.074 64.6142C47.256 64.6896 47.4214 64.8 47.5607 64.9393C47.7 65.0786 47.8105 65.244 47.8858 65.426C47.9612 65.608 48 65.803 48 66V72C48 72.197 47.9612 72.392 47.8858 72.574C47.8105 72.756 47.7 72.9214 47.5607 73.0607C47.4214 73.2 47.256 73.3104 47.074 73.3858C46.892 73.4612 46.697 73.5 46.5 73.5ZM42 70.5H45V67.5H42V70.5Z" fill="#FDD13C"/>
<path d="M52.5 67.5H57V70.5H52.5V67.5Z" fill="#FF7707"/>
<path d="M60 67.5H81V70.5H60V67.5Z" fill="#FF7707"/>
<path d="M40.5 78H46.5V84H40.5V78Z" fill="white"/>
<path d="M46.5 85.5H40.5C40.303 85.5 40.108 85.4612 39.926 85.3858C39.744 85.3104 39.5786 85.2 39.4393 85.0607C39.3 84.9214 39.1895 84.756 39.1142 84.574C39.0388 84.392 39 84.197 39 84V78C39 77.803 39.0388 77.608 39.1142 77.426C39.1895 77.244 39.3 77.0786 39.4393 76.9393C39.5786 76.8 39.744 76.6896 39.926 76.6142C40.108 76.5388 40.303 76.5 40.5 76.5H46.5C46.697 76.5 46.892 76.5388 47.074 76.6142C47.256 76.6896 47.4214 76.8 47.5607 76.9393C47.7 77.0786 47.8105 77.244 47.8858 77.426C47.9612 77.608 48 77.803 48 78V84C48 84.197 47.9612 84.392 47.8858 84.574C47.8105 84.756 47.7 84.9214 47.5607 85.0607C47.4214 85.2 47.256 85.3104 47.074 85.3858C46.892 85.4612 46.697 85.5 46.5 85.5ZM42 82.5H45V79.5H42V82.5Z" fill="#FDD13C"/>
<path d="M52.5 79.5H57V82.5H52.5V79.5Z" fill="#FF7707"/>
<path d="M60 79.5H81V82.5H60V79.5Z" fill="#FF7707"/>
<path d="M12 19.5V84H33V34.5H84V19.5H12Z" fill="#FF7707"/>
<path d="M12 34.5H33V37.5H12V34.5Z" fill="#FDD13C"/>
<path d="M81 19.5H84V34.5H81V19.5Z" fill="#FDD13C"/>
</svg>
